<!DOCTYPE svg PUBLIC "-//W3C//DTD SVG 20010904//EN" "http://www.w3.org/TR/2001/REC-SVG-20010904/DTD/svg10.dtd">
<svg version="1.0" xmlns="http://www.w3.org/2000/svg" width="200px" height="200px" viewBox="0 0 2000 2000" preserveAspectRatio="xMidYMid meet">
<g id="layer101" fill="#265d0c" stroke="none">
 <path d="M914 1724 c-21 -15 -51 -37 -65 -49 -15 -12 -53 -32 -85 -45 -205 -83 -363 -239 -416 -412 -41 -136 -25 -325 36 -418 81 -123 198 -177 360 -167 50 3 101 9 114 13 22 6 22 5 22 -72 0 -97 -22 -204 -51 -250 -17 -28 -19 -37 -9 -49 17 -21 33 -19 57 8 32 33 53 111 68 244 7 65 13 109 14 97 0 -11 15 -48 32 -82 35 -70 104 -137 158 -152 64 -18 168 -9 243 21 26 11 27 13 14 38 -20 37 -92 107 -129 125 -18 8 -73 20 -122 26 -77 10 -193 46 -182 56 1 2 30 -4 62 -12 41 -11 89 -15 150 -12 79 3 101 8 167 40 169 80 225 188 216 418 -4 95 -9 126 -31 178 -56 134 -172 241 -375 346 -120 62 -130 70 -155 109 -22 34 -44 34 -93 1z m61 -74 c10 -11 70 -47 134 -81 188 -98 302 -192 351 -289 28 -55 50 -151 50 -218 0 -171 -62 -276 -200 -341 -75 -35 -214 -36 -305 -3 -33 12 -61 27 -63 32 -2 6 -14 10 -28 10 -17 0 -25 -7 -30 -24 -5 -20 -15 -25 -80 -36 -250 -43 -414 96 -414 350 0 221 151 417 400 520 39 16 90 45 113 64 23 20 45 36 48 36 3 0 14 -9 24 -20z m163 -1094 c109 -15 157 -36 192 -86 l20 -28 -42 -8 c-105 -18 -169 -3 -219 53 -33 36 -76 99 -62 90 6 -4 56 -13 111 -21z"/>
 <path d="M985 1435 c-38 -13 -85 -55 -85 -75 0 -5 9 -14 21 -21 17 -9 25 -7 44 11 45 43 115 43 160 0 26 -25 55 -17 55 15 0 28 -27 53 -77 71 -48 17 -68 17 -118 -1z"/>
 <path d="M1247 1199 c-26 -15 -49 -74 -41 -107 11 -45 43 -72 84 -72 40 0 62 17 80 64 29 78 -54 155 -123 115z"/>
 <path d="M690 1115 c-10 -12 -10 -18 0 -30 10 -13 33 -15 114 -13 100 3 101 3 101 28 0 25 -1 25 -101 28 -81 2 -104 0 -114 -13z"/>
 </g>

</svg>